<svg viewBox="0 0 24 24" fill="none" xmlns="http://www.w3.org/2000/svg">
  <g clip-path="url(#clip0_1_2)">
    <circle cx="12" cy="12" r="12" fill="#101010" />
    <path
      d="M14.3239 9.71023C14.2784 9.25189 14.0833 8.89583 13.7386 8.64204C13.3939 8.38826 12.9261 8.26136 12.3352 8.26136C11.9337 8.26136 11.5947 8.31818 11.3182 8.43182C11.0417 8.54167 10.8295 8.69507 10.6818 8.89204C10.5379 9.08901 10.4659 9.3125 10.4659 9.5625C10.4583 9.77083 10.5019 9.95265 10.5966 10.108C10.6951 10.2633 10.8295 10.3977 11 10.5114C11.1705 10.6212 11.3674 10.7178 11.5909 10.8011C11.8144 10.8807 12.053 10.9489 12.3068 11.0057L13.3523 11.2557C13.8599 11.3693 14.3258 11.5208 14.75 11.7102C15.1742 11.8996 15.5417 12.1326 15.8523 12.4091C16.1629 12.6856 16.4034 13.0114 16.5739 13.3864C16.7481 13.7614 16.8371 14.1913 16.8409 14.6761C16.8371 15.3883 16.6553 16.0057 16.2955 16.5284C15.9394 17.0473 15.4242 17.4508 14.75 17.7386C14.0795 18.0227 13.2708 18.1648 12.3239 18.1648C11.3845 18.1648 10.5663 18.0208 9.86932 17.733C9.17614 17.4451 8.63447 17.0189 8.24432 16.4545C7.85796 15.8864 7.65531 15.1837 7.63637 14.3466H8.82671H10.017C10.0436 14.7367 10.1553 15.0625 10.3523 15.3239C10.553 15.5814 10.8201 15.7765 11.1534 15.9091C11.4905 16.0379 11.8712 16.1023 12.2955 16.1023C12.7121 16.1023 13.0739 16.0417 13.3807 15.9205C13.6913 15.7992 13.9318 15.6307 14.1023 15.4148C14.2727 15.1989 14.358 14.9508 14.358 14.6705C14.358 14.4091 14.2803 14.1894 14.125 14.0114C13.9735 13.8333 13.75 13.6818 13.4545 13.5568C13.1629 13.4318 12.8049 13.3182 12.3807 13.2159L11.1136 12.8977C10.1326 12.6591 9.35796 12.286 8.78978 11.7784C8.2216 11.2708 7.9394 10.5871 7.94319 9.72727C7.9394 9.02273 8.1269 8.4072 8.50569 7.88068C8.88826 7.35417 9.41288 6.94318 10.0795 6.64773C10.7462 6.35227 11.5038 6.20454 12.3523 6.20454C13.2159 6.20454 13.9697 6.35227 14.6136 6.64773C15.2614 6.94318 15.7652 7.35417 16.125 7.88068C16.4849 8.4072 16.6705 9.01704 16.6818 9.71023H14.3239Z"
      fill="white" />
    <path
      d="M12.0416 15.0646C11.8775 15.0646 11.7366 15.0066 11.619 14.8906C11.503 14.773 11.445 14.6321 11.445 14.468C11.445 14.3056 11.503 14.1664 11.619 14.0504C11.7366 13.9344 11.8775 13.8764 12.0416 13.8764C12.2006 13.8764 12.3398 13.9344 12.4592 14.0504C12.5785 14.1664 12.6381 14.3056 12.6381 14.468C12.6381 14.5774 12.61 14.6777 12.5536 14.7688C12.4989 14.8583 12.4269 14.9304 12.3374 14.9851C12.2479 15.0381 12.1493 15.0646 12.0416 15.0646Z"
      fill="white" />
    <path
      d="M12.5966 10.1882C12.4325 10.1882 12.2917 10.1302 12.174 10.0142C12.058 9.89654 12 9.75568 12 9.59162C12 9.42921 12.058 9.29001 12.174 9.17401C12.2917 9.058 12.4325 9 12.5966 9C12.7557 9 12.8949 9.058 13.0142 9.17401C13.1335 9.29001 13.1932 9.42921 13.1932 9.59162C13.1932 9.70099 13.165 9.80125 13.1087 9.8924C13.054 9.98189 12.9819 10.054 12.8924 10.1087C12.8029 10.1617 12.7043 10.1882 12.5966 10.1882Z"
      fill="white" />
  </g>
  <defs>
    <clipPath id="clip0_1_2">
      <rect width="24" height="24" fill="white" />
    </clipPath>
  </defs>
</svg>